<?xml version="1.0" encoding="UTF-8"?>
<svg width="1022px" height="927px" viewBox="0 0 1022 927" version="1.1" xmlns="http://www.w3.org/2000/svg" xmlns:xlink="http://www.w3.org/1999/xlink">
    <!-- Generator: Sketch 53.1 (72631) - https://sketchapp.com -->
    <title>gorilla-green</title>
    <desc>Created with Sketch.</desc>
    <g id="Game" stroke="none" stroke-width="1" fill="none" fill-rule="evenodd">
        <g id="main" transform="translate(-209.000000, -49.000000)" fill="#000000" fill-rule="nonzero">
            <path d="M1106.07075,975.99645 L1106.07075,975.99645 L963.370755,975.99645 C955.170755,975.99645 947.470755,972.69645 942.070755,966.89645 C936.870755,961.19645 934.270755,953.79645 934.870755,945.89645 C935.670755,935.49645 942.670755,926.59645 948.170755,919.39645 C949.170755,918.19645 950.070755,916.99645 950.870755,915.89645 C955.070755,910.09645 963.570755,901.09645 968.770755,895.69645 C968.070755,889.39645 967.570755,882.49645 966.970755,875.19645 C965.470755,855.89645 963.870755,833.99645 958.370755,820.89645 C953.470755,809.29645 945.870755,798.49645 937.870755,787.09645 C930.570755,776.69645 922.970755,765.89645 917.170755,753.99645 C903.470755,725.79645 898.970755,696.79645 896.170755,669.59645 C895.770755,665.99645 895.370755,662.39645 894.870755,658.79645 C861.170755,721.09645 815.370755,763.39645 758.170755,784.69645 C660.970755,820.89645 560.970755,785.49645 527.170755,770.99645 C521.770755,783.09645 514.070755,800.19645 512.570755,803.09645 C503.970755,819.69645 492.470755,835.19645 478.270755,849.19645 C465.470755,861.79645 449.970755,868.99645 434.970755,875.99645 L431.670755,877.49645 C412.170755,886.59645 410.870755,890.89645 410.970755,891.99645 C411.170755,894.89645 419.470755,897.59645 425.570755,899.59645 C431.670755,901.59645 438.070755,903.69645 443.170755,907.29645 C457.870755,917.79645 467.270755,936.69645 468.970755,959.09645 C469.370755,963.89645 467.870755,968.29645 464.970755,971.39645 C462.170755,974.39645 458.470755,975.99645 454.270755,975.99645 L287.170755,975.99645 C261.570755,975.99645 238.470755,965.59645 223.670755,947.29645 C199.870755,917.99645 211.870755,876.59645 213.170755,872.59645 C214.670755,867.39645 218.970755,852.79645 224.370755,834.39645 C233.470755,802.99645 246.170755,759.99645 249.570755,747.29645 C254.170755,730.29645 265.570755,720.99645 274.670755,713.49645 C278.870755,709.99645 282.870755,706.79645 285.870755,703.19645 C299.070755,686.99645 293.870755,667.19645 289.670755,651.29645 C288.870755,648.29645 288.170755,645.39645 287.570755,642.79645 C279.970755,607.79645 288.170755,568.79645 295.470755,534.39645 C296.470755,529.79645 297.370755,525.39645 298.270755,520.99645 C305.970755,483.09645 317.370755,439.59645 343.970755,403.99645 C372.670755,365.49645 402.470755,337.99645 454.470755,329.09645 C485.470755,323.79645 516.470755,330.59645 546.470755,337.09645 C553.170755,338.49645 559.370755,339.89645 565.670755,341.19645 C604.970755,348.89645 640.570755,336.49645 677.770755,301.89645 C685.570755,294.59645 693.270755,286.69645 700.570755,279.09645 C722.070755,256.89645 744.270755,233.89645 775.770755,221.09645 C803.670755,209.79645 834.870755,201.49645 868.670755,196.29645 C906.370755,128.59645 962.870755,82.2964502 993.770755,60.3964502 C1031.87075,33.4964502 1070.37075,59.8964502 1101.27075,81.1964502 C1103.37075,82.5964502 1105.47075,84.0964502 1107.47075,85.4964502 C1116.97075,91.9964502 1132.27075,108.09645 1135.47075,126.09645 C1137.67075,138.49645 1135.77075,146.69645 1134.57075,152.09645 C1134.27075,153.49645 1133.77075,155.49645 1133.87075,156.09645 C1134.17075,158.49645 1138.37075,161.59645 1142.07075,164.29645 L1142.27075,164.39645 C1149.97075,170.09645 1157.37075,176.49645 1164.27075,183.59645 C1174.87075,194.59645 1184.07075,206.89645 1190.97075,219.29645 C1200.27075,236.09645 1202.87075,252.09645 1198.77075,268.09645 C1198.67075,268.49645 1198.57075,268.89645 1198.47075,269.39645 C1197.47075,273.69645 1195.07075,284.09645 1183.97075,288.99645 C1185.77075,290.19645 1187.87075,291.59645 1190.17075,293.49645 C1199.57075,300.99645 1201.37075,312.69645 1201.47075,320.69645 C1223.07075,337.49645 1224.87075,360.89645 1224.47075,371.59645 C1230.67075,381.29645 1230.87075,390.09645 1229.67075,396.19645 C1227.87075,406.09645 1221.17075,415.19645 1211.77075,420.59645 C1208.57075,422.39645 1205.67075,423.29645 1203.27075,423.89645 C1199.07075,425.09645 1195.77075,425.99645 1188.47075,436.49645 C1178.67075,450.49645 1160.97075,464.09645 1140.67075,460.29645 C1126.37075,457.59645 1112.87075,449.39645 1099.27075,435.19645 C1097.27075,433.09645 1095.37075,430.39645 1093.37075,427.59645 C1092.17075,425.79645 1090.07075,422.89645 1088.17075,420.69645 C1087.97075,422.99645 1087.97075,425.59645 1087.97075,426.99645 C1087.97075,427.79645 1087.97075,428.59645 1087.97075,429.29645 C1087.77075,439.89645 1088.77075,448.59645 1091.07075,456.69645 C1093.27075,464.69645 1098.77075,471.89645 1104.67075,479.59645 C1107.27075,482.99645 1109.97075,486.49645 1112.37075,490.19645 C1121.57075,503.79645 1129.67075,519.29645 1136.57075,536.09645 C1156.67075,585.19645 1158.97075,627.59645 1156.27075,684.39645 C1154.47075,721.79645 1165.17075,778.29645 1169.77075,800.79645 C1170.27075,802.99645 1170.77075,805.39645 1171.27075,807.79645 C1179.77075,848.09645 1193.97075,915.49645 1164.27075,952.09645 C1151.47075,967.79645 1131.77075,975.99645 1106.07075,975.99645 Z M902.770755,601.29645 C903.470755,601.29645 904.270755,601.39645 905.070755,601.49645 C910.770755,602.59645 914.970755,607.49645 915.070755,613.29645 C915.270755,624.79645 916.770755,636.19645 918.370755,648.29645 C919.170755,654.39645 919.970755,660.69645 920.670755,666.99645 C923.270755,691.89645 927.270755,718.39645 939.270755,743.19645 C944.170755,753.29645 950.870755,762.89645 957.970755,772.99645 C966.370755,784.99645 975.170755,797.39645 980.970755,811.39645 C988.070755,828.19645 989.870755,852.19645 991.470755,873.39645 C992.170755,882.59645 992.870755,891.39645 993.870755,898.29645 C994.470755,902.09645 993.170755,905.99645 990.370755,908.69645 C986.270755,912.79645 974.870755,924.59645 970.670755,930.29645 C969.770755,931.59645 968.670755,932.89645 967.570755,934.39645 C964.770755,937.99645 959.570755,944.79645 959.270755,947.89645 C959.170755,948.89645 959.470755,949.69645 959.970755,950.29645 C960.670755,951.09645 961.870755,951.49645 963.170755,951.49645 L1105.87075,951.49645 C1124.07075,951.49645 1136.87075,946.49645 1145.17075,936.29645 C1167.47075,908.79645 1154.77075,848.49645 1147.17075,812.59645 C1146.67075,810.09645 1146.17075,807.69645 1145.67075,805.49645 C1139.67075,776.39645 1129.77075,721.69645 1131.67075,682.89645 C1134.27075,629.59645 1132.07075,589.99645 1113.77075,545.09645 C1107.47075,529.79645 1100.17075,515.89645 1091.87075,503.59645 C1089.77075,500.49645 1087.47075,497.49645 1084.97075,494.19645 C1078.27075,485.39645 1070.67075,475.49645 1067.17075,462.89645 C1064.27075,452.39645 1063.07075,441.59645 1063.27075,428.59645 C1063.27075,427.99645 1063.27075,427.29645 1063.27075,426.59645 C1063.27075,417.99645 1063.27075,399.99645 1078.77075,394.29645 C1095.67075,387.99645 1107.07075,404.29645 1113.27075,412.99645 C1114.57075,414.89645 1116.07075,416.99645 1116.87075,417.89645 C1126.67075,428.09645 1136.07075,434.19645 1144.97075,435.89645 C1153.77075,437.59645 1162.97075,429.49645 1168.17075,422.09645 C1179.47075,405.89645 1187.97075,402.39645 1196.27075,399.99645 C1197.87075,399.49645 1198.77075,399.29645 1199.37075,398.89645 C1202.47075,397.09645 1204.77075,394.19645 1205.27075,391.39645 C1205.77075,388.69645 1204.67075,385.79645 1202.07075,382.59645 C1199.77075,379.79645 1198.87075,376.19645 1199.47075,372.69645 C1199.57075,371.89645 1202.77075,349.59645 1182.07075,336.99645 C1177.67075,334.39645 1175.47075,329.29645 1176.37075,324.29645 C1177.07075,320.09645 1176.47075,313.89645 1174.57075,312.39645 C1172.17075,310.49645 1169.97075,309.09645 1167.97075,307.89645 C1163.57075,305.19645 1156.17075,300.59645 1156.87075,290.99645 C1157.27075,285.49645 1158.47075,268.79645 1172.17075,266.69645 C1172.77075,266.59645 1173.17075,266.49645 1173.47075,266.39645 C1173.67075,265.69645 1173.97075,264.49645 1174.17075,263.69645 C1174.27075,263.09645 1174.47075,262.49645 1174.57075,261.89645 C1177.07075,252.09645 1175.27075,242.29645 1169.07075,230.99645 C1163.27075,220.49645 1155.37075,209.99645 1146.27075,200.49645 C1140.37075,194.39645 1134.07075,188.89645 1127.47075,183.99645 L1127.27075,183.89645 C1120.77075,179.09645 1110.97075,171.99645 1109.27075,159.19645 C1108.57075,154.29645 1109.57075,150.19645 1110.37075,146.49645 C1111.37075,141.99645 1112.37075,137.69645 1111.07075,130.19645 C1109.47075,120.99645 1099.57075,109.89645 1093.47075,105.69645 C1091.37075,104.29645 1089.27075,102.79645 1087.17075,101.39645 C1053.77075,78.3964502 1030.17075,64.4964502 1007.77075,80.3964502 C978.170755,101.59645 922.670755,146.99645 887.470755,213.29645 C885.670755,216.79645 882.270755,219.09645 878.370755,219.69645 C844.170755,224.49645 812.770755,232.59645 785.070755,243.79645 C758.370755,254.59645 738.870755,274.69645 718.270755,296.09645 C710.670755,303.99645 702.770755,312.09645 694.470755,319.79645 C659.770755,351.99645 624.670755,367.79645 587.570755,367.79645 C578.770755,367.79645 569.870755,366.89645 560.870755,365.09645 C554.370755,363.79645 547.670755,362.39645 541.170755,360.89645 C513.470755,354.89645 484.770755,348.59645 458.470755,353.09645 C419.870755,359.69645 394.170755,377.39645 363.570755,418.49645 C339.970755,450.19645 329.470755,490.49645 322.270755,525.69645 C321.370755,530.09645 320.370755,534.69645 319.470755,539.29645 C312.670755,571.29645 305.070755,607.59645 311.470755,637.49645 C311.970755,639.69645 312.670755,642.29645 313.370755,644.99645 C318.070755,662.89645 325.970755,692.79645 304.870755,718.69645 C300.370755,724.19645 295.170755,728.39645 290.270755,732.49645 C282.170755,739.09645 275.770755,744.39645 273.270755,753.69645 C269.770755,766.69645 257.570755,808.09645 247.870755,841.39645 C242.670755,859.29645 238.070755,874.69645 236.670755,879.49645 C236.670755,879.59645 236.570755,879.79645 236.570755,879.89645 C236.470755,880.19645 226.670755,912.09645 242.670755,931.79645 C252.770755,944.29645 269.070755,951.39645 287.170755,951.39645 L443.070755,951.39645 C441.270755,943.29645 437.370755,933.19645 428.870755,927.19645 C426.870755,925.69645 422.170755,924.19645 417.970755,922.89645 C405.970755,918.99645 387.870755,913.09645 386.470755,893.69645 C384.970755,872.19645 408.570755,861.19645 421.270755,855.19645 L424.570755,853.59645 C438.270755,847.19645 451.270755,841.19645 461.070755,831.59645 C473.470755,819.39645 483.470755,805.99645 490.770755,791.79645 C492.470755,788.39645 508.070755,753.79645 509.470755,750.19645 C510.770755,746.99645 513.270755,744.39645 516.470755,743.19645 C519.670755,741.99645 523.270755,742.19645 526.370755,743.69645 C527.470755,744.29645 642.870755,801.49645 749.570755,761.59645 C811.570755,738.49645 859.270755,687.09645 891.270755,608.79645 C893.370755,604.19645 897.870755,601.29645 902.770755,601.29645 Z" id="gorilla-green"></path>
        </g>
    </g>
</svg>